<svg width="187" height="40" viewBox="0 0 187 40" fill="none" xmlns="http://www.w3.org/2000/svg">
<path fill-rule="evenodd" clip-rule="evenodd" d="M20.0195 29.3664V39.0373H0.580078V19.578H10.2396V29.3664H20.0195ZM39.4575 39.0373H29.798V29.3664H39.4575V39.0373ZM20.0195 9.66947V0H39.4575V19.4592H29.798V9.66947H20.0195ZM0.580078 0H10.2396V9.66947H0.580078V0Z" fill="white"/>
<path d="M176.842 39.3945C175.765 39.3744 174.69 39.2947 173.622 39.1561C172.638 39.059 171.674 38.8179 170.76 38.4402C169.968 38.2163 169.208 37.895 168.495 37.4841L170.522 32.9488C171.121 33.3375 171.762 33.6579 172.432 33.9035C173.167 34.1732 173.925 34.3727 174.697 34.5002C175.486 34.639 176.283 34.7193 177.083 34.74C177.682 34.7687 178.282 34.7281 178.871 34.6194C179.23 34.5606 179.563 34.3946 179.826 34.1429C179.916 34.0486 179.984 33.9354 180.025 33.8115C180.067 33.6877 180.08 33.5562 180.064 33.4267C180.085 33.2695 180.047 33.1105 179.96 32.9786C179.872 32.8467 179.739 32.751 179.587 32.7093C179.177 32.5045 178.731 32.3828 178.275 32.3517C177.691 32.1978 177.09 32.1179 176.487 32.1137C175.771 31.9931 175.175 31.8738 174.459 31.7546C173.764 31.6279 173.085 31.4277 172.432 31.1576C171.788 30.9377 171.184 30.6155 170.643 30.2033C170.115 29.769 169.671 29.243 169.331 28.6504C168.967 27.91 168.802 27.0872 168.853 26.2636C168.881 25.3961 169.084 24.5431 169.45 23.7561C169.873 22.9447 170.487 22.2485 171.239 21.7269C172.122 21.1479 173.086 20.7051 174.101 20.4135C175.383 20.065 176.709 19.9046 178.037 19.9371C178.955 19.9625 179.871 20.0419 180.779 20.1751C181.665 20.2651 182.543 20.4252 183.403 20.6534C184.152 20.8377 184.873 21.1183 185.55 21.4885L183.522 26.0252C182.643 25.5838 181.725 25.224 180.779 24.9503C179.923 24.7225 179.042 24.6026 178.156 24.593C177.552 24.5974 176.951 24.6773 176.368 24.8311C176.008 24.8894 175.675 25.0561 175.413 25.3089C175.32 25.4015 175.251 25.5156 175.212 25.6407C175.173 25.7658 175.165 25.8984 175.188 26.0274C175.212 26.1564 175.266 26.278 175.346 26.3814C175.427 26.4847 175.531 26.5668 175.651 26.6208C176.05 26.8707 176.497 27.0335 176.963 27.0987C177.547 27.2533 178.148 27.3335 178.752 27.3371C179.349 27.4577 180.064 27.5767 180.779 27.6958C181.474 27.8227 182.154 28.0229 182.807 28.2929C183.439 28.5387 184.04 28.8594 184.596 29.2475C185.123 29.6821 185.568 30.2081 185.908 30.8003C186.272 31.5409 186.436 32.3637 186.384 33.1872C186.371 34.0185 186.167 34.8356 185.788 35.5755C185.392 36.3746 184.77 37.0393 184 37.487C183.117 38.0665 182.153 38.5094 181.138 38.8003C179.75 39.2396 178.297 39.4406 176.842 39.3945ZM162.412 22.4399V20.2915H156.095V39.1532H162.653V30.4384C162.625 29.5263 162.83 28.6223 163.25 27.8121C163.607 27.1566 164.145 26.6181 164.8 26.2607C165.544 25.9086 166.363 25.7442 167.186 25.7825H167.901C168.184 25.7711 168.467 25.812 168.736 25.9031V19.94C167.479 19.934 166.23 20.1353 165.039 20.5356C164.029 20.9595 163.13 21.6112 162.412 22.4399ZM145.24 24.5901C145.855 24.5694 146.467 24.6916 147.028 24.9474C147.542 25.1996 147.991 25.5675 148.34 26.0223C148.698 26.5196 148.943 27.0901 149.055 27.6929H141.304C141.394 27.0833 141.64 26.5076 142.02 26.0223C142.368 25.5675 142.817 25.1996 143.331 24.9474C143.938 24.7044 144.587 24.584 145.24 24.593V24.5901ZM155.256 29.7225C155.304 28.2841 155.018 26.8541 154.422 25.5445C153.961 24.3548 153.225 23.2909 152.276 22.4399C151.32 21.6225 150.23 20.9758 149.055 20.5281C147.793 20.0805 146.457 19.8787 145.119 19.9328C143.696 19.9172 142.282 20.1596 140.946 20.6487C139.715 21.108 138.581 21.7968 137.606 22.6783C136.656 23.5287 135.921 24.5918 135.46 25.7811C134.932 27.0285 134.648 28.366 134.625 29.7207C134.59 31.0814 134.876 32.4315 135.46 33.6607C135.965 34.8573 136.74 35.9198 137.725 36.7649C138.745 37.6468 139.918 38.3344 141.185 38.7931C142.643 39.2913 144.176 39.5334 145.716 39.509C147.308 39.5656 148.894 39.281 150.367 38.6739C151.634 38.1744 152.775 37.4 153.706 36.4063L150.248 32.8253C149.84 33.1818 149.401 33.5011 148.936 33.7796C148.008 34.3504 146.919 34.602 145.835 34.4959C144.775 34.566 143.723 34.2715 142.854 33.6607C142.047 33.1268 141.455 32.3231 141.185 31.3931H154.899C154.88 31.1089 154.921 30.8238 155.018 30.5562C155.191 30.3149 155.275 30.0215 155.256 29.7254V29.7225ZM123.534 34.1343C122.834 34.1028 122.147 33.9405 121.508 33.6561C120.887 33.2921 120.389 32.7523 120.075 32.1047C119.724 31.3173 119.561 30.4587 119.599 29.5972C119.606 28.7787 119.768 27.9692 120.075 27.2107C120.388 26.5623 120.887 26.0216 121.508 25.6576C122.137 25.3433 122.831 25.1797 123.535 25.1797C124.239 25.1797 124.933 25.3433 125.562 25.6576C126.182 26.0221 126.68 26.5627 126.993 27.2107C127.345 27.9553 127.508 28.7746 127.469 29.5972C127.449 30.4534 127.288 31.3006 126.993 32.1047C126.685 32.7499 126.19 33.288 125.574 33.6496C124.957 34.0113 124.247 34.1801 123.534 34.1343ZM127.353 13.2429V21.8371C126.756 21.1461 125.968 20.6475 125.088 20.4045C124.134 20.054 123.121 19.8922 122.106 19.9281C120.876 19.9113 119.657 20.1554 118.528 20.6444C117.426 21.0941 116.416 21.7421 115.547 22.5562C114.67 23.4437 113.981 24.4989 113.52 25.659C112.566 28.2807 112.566 31.1551 113.52 33.7767C113.98 34.9371 114.67 35.9926 115.547 36.8798C116.364 37.7586 117.389 38.4163 118.528 38.7917C120.698 39.6576 123.101 39.7421 125.326 39.0312C126.216 38.6851 126.997 38.1085 127.591 37.3606V39.2724H133.909V13.2429H127.353ZM105.291 39.0283H111.85V13.2429H105.291V39.0283ZM96.7044 39.0283H103.264V20.2857H96.6986L96.7044 39.0283ZM100.044 18.1369C100.789 18.1772 101.532 18.012 102.19 17.659C102.773 17.3535 103.266 16.9007 103.621 16.3457C103.96 15.7675 104.126 15.1041 104.099 14.4342C104.141 13.8007 103.973 13.1709 103.621 12.643C103.261 12.1227 102.766 11.71 102.19 11.4488C101.512 11.1518 100.783 10.9892 100.044 10.9706C99.2981 10.931 98.5559 11.0965 97.8974 11.4488C97.3465 11.7492 96.8598 12.1549 96.465 12.643C96.1531 13.1881 95.9891 13.8053 95.9891 14.4335C95.9891 15.0616 96.1531 15.6785 96.465 16.2236C96.8268 16.7431 97.3215 17.1555 97.8974 17.4178C98.1837 17.6827 98.5225 17.8847 98.8918 18.0102C99.261 18.1356 99.6525 18.1817 100.041 18.1459L100.044 18.1369ZM88.1174 20.2857V29.3577C88.1809 30.221 88.0163 31.0855 87.6399 31.8649C87.3686 32.4716 86.9084 32.9743 86.328 33.2974C85.8012 33.6502 85.1725 33.8182 84.5401 33.7753C83.9623 33.7972 83.3881 33.6745 82.8697 33.418C82.365 33.1249 81.9838 32.6581 81.7972 32.1047C81.534 31.337 81.4126 30.5277 81.4388 29.7164V20.2857H74.8806V30.7914C74.8627 32.0897 75.0613 33.3821 75.4683 34.6151C75.7793 35.6248 76.3563 36.532 77.1387 37.2414C77.8503 37.9356 78.7053 38.4655 79.6435 38.7931C80.6792 39.1443 81.7695 39.3061 82.8624 39.271C83.9233 39.2579 84.9735 39.0557 85.9637 38.6739C86.9384 38.302 87.801 37.6851 88.4685 36.8827V38.9138H94.7858V20.29L88.1174 20.2857ZM63.3127 34.1343H57.5831V29.2385H63.3127C64.2618 29.2122 65.2031 29.4171 66.0556 29.8356C66.3656 30.045 66.6163 30.3311 66.7834 30.6661C66.9505 31.001 67.0282 31.3736 67.009 31.7475C67.0145 32.1192 66.9308 32.4869 66.7649 32.8195C66.599 33.1522 66.3557 33.4403 66.0556 33.6593C65.175 33.9777 64.2461 34.1411 63.3098 34.1429L63.3127 34.1343ZM62.2388 19.6886C63.1514 19.6449 64.0586 19.8514 64.8626 20.2857C65.1239 20.5052 65.334 20.7791 65.4782 21.0885C65.6223 21.3979 65.697 21.7351 65.697 22.0766C65.697 22.418 65.6223 22.7555 65.4782 23.065C65.334 23.3744 65.1239 23.6483 64.8626 23.8678C64.0584 24.3015 63.1512 24.5075 62.2388 24.4634H57.4686V19.8075H62.2388V19.6886ZM69.3934 26.3738C70.3676 25.8859 71.192 25.1437 71.7793 24.2254C72.3595 23.2966 72.65 22.2156 72.6137 21.1208C72.6429 19.9174 72.2649 18.7396 71.5413 17.7782C70.6908 16.7466 69.5784 15.9632 68.321 15.5106C66.6031 14.8864 64.7803 14.6026 62.9543 14.6751H50.668V39.0283H63.7902C65.6552 39.0994 67.5167 38.8153 69.2759 38.1914C70.5888 37.7833 71.7511 36.9941 72.6152 35.9237C73.3963 34.8944 73.8157 33.6357 73.8081 32.3431C73.8083 31.4339 73.6045 30.5362 73.2117 29.7164C72.8736 28.9203 72.3406 28.2225 71.6618 27.6872C70.9803 27.132 70.2132 26.6915 69.3905 26.3828L69.3934 26.3738Z" fill="black"/>
<path d="M111.491 8.83398V0.956084H111.013L107.555 7.04276L104.096 0.956084H103.619V8.83398H104.215V2.14556L107.436 7.7576H107.674L110.894 2.14556V8.83111L111.491 8.83398ZM96.1059 5.72942V1.55316H98.3713C98.8581 1.55366 99.3415 1.63395 99.8022 1.79119C99.9866 1.83945 100.158 1.92923 100.302 2.05329C100.447 2.17735 100.562 2.33254 100.638 2.50746C100.842 2.87027 100.925 3.28838 100.876 3.70161C100.866 4.1104 100.786 4.51439 100.638 4.89575C100.452 5.225 100.156 5.47852 99.8022 5.61202C99.3412 5.7684 98.858 5.84866 98.3713 5.85006H96.1118L96.1059 5.72942ZM101.592 8.83398L99.6817 6.08846C100.032 6.00311 100.358 5.84033 100.637 5.61202C100.897 5.38448 101.099 5.0973 101.224 4.77511C101.361 4.43241 101.442 4.06998 101.464 3.70161C101.489 3.19913 101.364 2.70038 101.105 2.26907C100.836 1.86289 100.467 1.53367 100.033 1.31332C99.4929 1.12556 98.9319 1.00564 98.3624 0.956084H95.6196V8.83398H96.2161V6.33403H99.0779L100.988 8.95892H101.584L101.592 8.83398ZM89.4272 8.35611C88.9424 8.33499 88.4619 8.25483 87.9963 8.11771C87.5597 8.02593 87.1752 7.76975 86.9224 7.4018C86.6046 7.10379 86.3598 6.73609 86.2069 6.32793C86.0704 5.90252 85.9904 5.46125 85.9689 5.01495C85.9793 4.56745 86.0597 4.12425 86.2069 3.70161C86.3742 3.30059 86.6171 2.93566 86.9224 2.62666C87.2203 2.30812 87.5879 2.06289 87.9963 1.91039C88.4596 1.76358 88.9414 1.6832 89.4272 1.672C89.9121 1.69311 90.3926 1.77327 90.8582 1.91039C91.2946 2.0026 91.679 2.25904 91.9321 2.62666C92.2503 2.92491 92.4952 3.29279 92.6476 3.70161C92.9649 4.54828 92.9649 5.48125 92.6476 6.32793C92.4799 6.72832 92.237 7.09309 91.9321 7.4018C91.6345 7.72071 91.2668 7.96564 90.8582 8.11771C90.3949 8.26452 89.9131 8.3449 89.4272 8.35611ZM89.4272 8.83398C90.0025 8.82998 90.571 8.70849 91.0976 8.47674C91.5904 8.35813 92.0431 8.11094 92.4096 7.76047C92.7802 7.38899 93.065 6.94063 93.244 6.44713C93.4789 5.96347 93.601 5.43282 93.601 4.89503C93.601 4.35724 93.4789 3.82659 93.244 3.34293C93.0653 2.84928 92.7805 2.40086 92.4096 2.02959C92.0387 1.65832 91.5908 1.373 91.0976 1.19412C90.5576 1.00653 89.9966 0.886167 89.4272 0.835449C88.8523 0.839988 88.2844 0.961943 87.7583 1.19412C87.2651 1.37326 86.8172 1.65873 86.4461 2.02995C86.075 2.40117 85.7898 2.84938 85.6105 3.34293C85.3754 3.82656 85.2533 4.35722 85.2533 4.89503C85.2533 5.43284 85.3754 5.9635 85.6105 6.44713C85.7897 6.94073 86.0749 7.38888 86.446 7.76011C86.8171 8.13135 87.2651 8.41653 87.7583 8.59558C88.2919 8.79094 88.8604 8.87226 89.4272 8.83398ZM84.3 1.55316V0.956084H79.0523V8.83398H79.6488V5.37219H83.8225V4.89575H79.6488V1.55746L84.3 1.55316ZM74.282 8.83398H74.8785V1.55746H77.7404V0.960393H71.5392V1.43683H74.401V8.83829L74.282 8.83398ZM65.457 6.20909L67.4844 1.672L69.5118 6.20909H65.457ZM70.8237 8.83398H71.4202L67.8414 0.956084H67.2449L63.6676 8.83398H64.2641L65.2175 6.68553H69.7498L70.8237 8.83398ZM58.4199 8.83398H63.4296V8.35611H59.0223V0.956084H58.4258L58.4199 8.83398ZM53.2927 5.72942H51.0258V1.55316H53.2927C53.7794 1.5538 54.2628 1.63408 54.7236 1.79119C54.9077 1.83964 55.0785 1.92924 55.223 2.05329C55.3676 2.17734 55.4821 2.3327 55.5581 2.50746C55.7616 2.87027 55.845 3.28838 55.7961 3.70161C55.786 4.1104 55.7055 4.5144 55.5581 4.89575C55.372 5.22474 55.0768 5.47823 54.7236 5.61202C54.2532 5.7094 53.7726 5.74866 53.2927 5.72942ZM53.2927 0.956084H50.5498V8.83398H51.1463V6.33403H53.4117C53.9892 6.35646 54.5632 6.23286 55.0806 5.975C55.5391 5.79237 55.9191 5.45476 56.1545 5.02069C56.389 4.57947 56.5116 4.08756 56.5116 3.58779C56.5116 3.08803 56.389 2.59576 56.1545 2.15454C55.8851 1.74871 55.5151 1.41995 55.0806 1.20023C54.4841 1.07523 53.8891 1.0752 53.2927 0.956084Z" fill="black"/>
</svg>
